<svg xmlns="http://www.w3.org/2000/svg" version="1.1" xmlns:xlink="http://www.w3.org/1999/xlink" xmlns:svgjs="http://svgjs.dev/svgjs" viewBox="0 0 3.2147996042900715 1.5834006886928886"><g transform="matrix(1,0,0,1,0.18565034434644456,0.43270034434644433)"><rect width="3.2147996042900715" height="3.2147996042900715" x="-0.18565034434644456" y="-1.2483998021450358" fill="#ffffff"></rect><g><path d=" M 0.323 -1.1102230246251565e-16 L 0.5670000000000001 0.6289999999999999 Q 0.582 0.6669999999999998 0.601 0.6794999999999999 Q 0.62 0.6919999999999998 0.636 0.6929999999999998 L 0.636 0.7129999999999999 Q 0.616 0.7109999999999999 0.587 0.7104999999999999 Q 0.558 0.7099999999999999 0.529 0.7099999999999999 Q 0.49 0.7099999999999999 0.456 0.7104999999999999 Q 0.422 0.7109999999999999 0.401 0.7129999999999999 L 0.401 0.6929999999999998 Q 0.452 0.6909999999999998 0.466 0.6754999999999999 Q 0.48 0.6599999999999998 0.46 0.6089999999999999 L 0.274 0.11199999999999988 L 0.29 0.09899999999999987 L 0.116 0.5509999999999998 Q 0.1 0.5909999999999999 0.097 0.6184999999999998 Q 0.094 0.6459999999999999 0.10250000000000001 0.6619999999999998 Q 0.111 0.6779999999999998 0.1315 0.6849999999999998 Q 0.152 0.6919999999999998 0.183 0.6929999999999998 L 0.183 0.7129999999999999 Q 0.155 0.7109999999999999 0.1245 0.7104999999999999 Q 0.094 0.7099999999999999 0.068 0.7099999999999999 Q 0.043000000000000003 0.7099999999999999 0.025500000000000002 0.7104999999999999 Q 0.008 0.7109999999999999 -0.007 0.7129999999999999 L -0.007 0.6929999999999998 Q 0.013000000000000001 0.6879999999999998 0.034 0.6694999999999999 Q 0.055 0.6509999999999998 0.07200000000000001 0.6059999999999999 L 0.307 -1.1102230246251565e-16 Q 0.311 -1.1102230246251565e-16 0.315 -1.1102230246251565e-16 Q 0.319 -1.1102230246251565e-16 0.323 -1.1102230246251565e-16 M 0.445 0.4249999999999998 L 0.445 0.44499999999999984 L 0.147 0.44499999999999984 L 0.157 0.4249999999999998 L 0.445 0.4249999999999998 M 1.4389853515625002 0.004999999999999893 L 1.4389853515625002 0.0249999999999998 Q 1.4049853515625 0.0259999999999998 1.3874853515624999 0.03249999999999986 Q 1.3699853515625 0.03899999999999981 1.3639853515625 0.056499999999999884 Q 1.3579853515625 0.07399999999999984 1.3579853515625 0.11099999999999988 L 1.3579853515625 0.6069999999999999 Q 1.3579853515625 0.6429999999999998 1.3639853515625 0.6609999999999998 Q 1.3699853515625 0.6789999999999998 1.3874853515624999 0.6849999999999998 Q 1.4049853515625 0.6909999999999998 1.4389853515625002 0.6929999999999998 L 1.4389853515625002 0.7129999999999999 Q 1.4159853515625 0.7109999999999999 1.3814853515625 0.7104999999999999 Q 1.3469853515625 0.7099999999999999 1.3119853515625 0.7099999999999999 Q 1.2729853515625 0.7099999999999999 1.2389853515625 0.7104999999999999 Q 1.2049853515625 0.7109999999999999 1.1839853515625 0.7129999999999999 L 1.1839853515625 0.6929999999999998 Q 1.2179853515625 0.6909999999999998 1.2354853515625002 0.6849999999999998 Q 1.2529853515625 0.6789999999999998 1.2589853515625 0.6609999999999998 Q 1.2649853515625 0.6429999999999998 1.2649853515625 0.6069999999999999 L 1.2649853515625 0.05699999999999983 L 1.2689853515625 0.05999999999999983 L 1.0239853515625001 0.7179999999999999 L 1.0079853515625001 0.7179999999999999 L 0.7559853515625 0.06899999999999984 L 0.7559853515625 0.5969999999999999 Q 0.7559853515625 0.6329999999999999 0.7624853515625 0.6534999999999999 Q 0.7689853515625 0.6739999999999998 0.7884853515625 0.6824999999999999 Q 0.8079853515625 0.6909999999999998 0.8469853515625 0.6929999999999998 L 0.8469853515625 0.7129999999999999 Q 0.8289853515625 0.7109999999999999 0.7999853515625 0.7104999999999999 Q 0.7709853515625 0.7099999999999999 0.7449853515625 0.7099999999999999 Q 0.7199853515625 0.7099999999999999 0.6944853515625 0.7104999999999999 Q 0.6689853515625 0.7109999999999999 0.6519853515625 0.7129999999999999 L 0.6519853515625 0.6929999999999998 Q 0.6859853515625 0.6909999999999998 0.7034853515625 0.6824999999999999 Q 0.7209853515625 0.6739999999999998 0.7269853515625 0.6534999999999999 Q 0.7329853515625 0.6329999999999999 0.7329853515625 0.5969999999999999 L 0.7329853515625 0.11099999999999988 Q 0.7329853515625 0.07399999999999984 0.7269853515625 0.056499999999999884 Q 0.7209853515625 0.03899999999999981 0.7034853515625 0.03249999999999986 Q 0.6859853515625 0.0259999999999998 0.6519853515625 0.0249999999999998 L 0.6519853515625 0.004999999999999893 Q 0.6689853515625 0.005999999999999894 0.6944853515625 0.006999999999999895 Q 0.7199853515625 0.007999999999999896 0.7449853515625 0.007999999999999896 Q 0.7669853515625 0.007999999999999896 0.7904853515625 0.006999999999999895 Q 0.8139853515625 0.005999999999999894 0.8299853515625 0.004999999999999893 L 1.0569853515625 0.6029999999999999 L 1.0399853515625 0.6109999999999999 L 1.2649853515625 0.007999999999999896 Q 1.2769853515625 0.007999999999999896 1.2884853515625 0.007999999999999896 Q 1.2999853515625 0.007999999999999896 1.3119853515625 0.007999999999999896 Q 1.3469853515625 0.007999999999999896 1.3814853515625 0.006999999999999895 Q 1.4159853515625 0.005999999999999894 1.4389853515625002 0.004999999999999893" fill="#173054" fill-rule="nonzero"></path></g><g></g><g clip-path="url(#SvgjsClipPath1002)"><g clip-path="url(#SvgjsClipPath1000a95e539f-9048-4b91-b31b-6c98dfb68037)"><path d=" M 2.72861861110605 0.2173632110585434 L 2.0728197591138535 0.041659125765152016 L 2.0728197591138535 -0.07729783963766004 L 2.8434989155971833 0.12925297988744222 L 2.8434989155971833 0.6811513341106301 L 2.5646553092382964 0.8421250846431538 L 2.5646553092382964 0.34322332227179975 L 2.1877000636049866 0.24223084261978994 L 2.1877000636049866 0.4119558252427188 L 2.0728197591138553 0.38116344648983147 L 2.0728197591138553 0.09248149846409148 L 2.6795627914688405 0.255058735621875 L 2.6795627914688405 0.6431296766743649 L 2.728618611106052 0.6148104722078966 L 2.728618611106052 0.2173632110585434 Z M 2.023763939476642 -0.14111117177515276 L 2.72861861110605 0.047746939393260024 L 2.72861861110605 -0.07121002600955204 L 2.0728197591138535 -0.24694128904235613 L 1.908856457246098 -0.15228122267315428 L 1.908856457246098 0.33721704186192536 L 2.023763939476642 0.3680094206148127 L 2.023763939476642 -0.14111117177515276 Z M 1.8598278153482986 0.374939744164667 L 1.8598278153482986 -0.12396201820668601 L 1.580984208989412 0.03703891006524762 L 1.580984208989412 0.5889100865490255 L 2.3516905432121518 0.7954609060741269 L 2.3516905432121518 0.6765311184107267 L 1.695891691219956 0.5007998553779226 L 1.695891691219956 0.10343412744680297 L 1.7449475108571673 0.07511492298033562 L 1.7449475108571673 0.4631586862934145 L 2.3516905432121518 0.6257359234511981 L 2.3516905432121518 0.33705397542545723 L 2.2367830609816086 0.3062615966725699 L 2.2367830609816086 0.47601375703491056 L 1.8598549930877113 0.37499409964348884 Z M 2.4006648296311304 0.8593557714298523 L 1.6958101580017204 0.6704976602614404 L 1.6958101580017204 0.7894546256642525 L 2.351609009993917 0.9651587109576447 L 2.5155451341222617 0.8704986445884431 L 2.5155451341222617 0.3807014249198415 L 2.4006648296311304 0.3499090461669542 Z" fill="#225777" transform="matrix(1,0,0,1,0,0)" fill-rule="evenodd"></path></g></g></g><defs><clipPath id="SvgjsClipPath1002"><path d=" M 1.58095703125 -0.24704999999999977 h 1.2625418843471823 v 1.2120999999999995 h -1.2625418843471823 Z"></path></clipPath><clipPath id="SvgjsClipPath1000a95e539f-9048-4b91-b31b-6c98dfb68037"><path d=" M 1.58095703125 -0.24704999999999977 L 2.8434989155971824 -0.24704999999999977 L 2.8434989155971824 0.9650499999999997 L 1.58095703125 0.9650499999999997 Z"></path></clipPath></defs></svg>